<svg width="49" height="42" viewBox="0 0 49 42" fill="none" xmlns="http://www.w3.org/2000/svg">
<g clip-path="url(#clip0_14_174)">
<path d="M38.2114 21.8295C38.2266 23.2676 38.0796 24.7028 37.7732 26.1081C37.4226 27.4179 36.8968 28.9896 35.4069 29.6882C33.3912 30.6487 30.6743 30.736 28.9215 30.736C25.2406 30.736 17.0023 31.0852 14.7237 30.0374C13.9306 29.7149 13.2286 29.2043 12.6787 28.5499C12.1289 27.8956 11.7478 27.1173 11.5686 26.2827C11.2838 24.7518 11.079 23.2071 10.9551 21.6549C10.8675 20.1705 10.6045 17.5509 12.7079 15.2807C13.4172 14.4893 14.245 13.8119 15.1619 13.2723C16.8938 12.2698 18.8557 11.7286 20.8585 11.7006C23.0751 11.5421 25.2992 11.5129 27.5192 11.6133C29.2299 11.6942 30.9165 12.0479 32.5148 12.6611C33.9884 13.1789 35.3123 14.0483 36.371 15.1933C37.0948 16.0192 37.6062 17.0082 37.8608 18.0748C38.1769 19.2999 38.2953 20.5674 38.2114 21.8295V21.8295ZM46.8879 25.4096C46.33 25.2475 45.7304 25.3128 45.2209 25.5912C44.7113 25.8695 44.3337 26.3382 44.171 26.894L42.2429 26.7193C42.4182 25.3222 42.7687 24.3617 42.8564 23.1393L44.5216 23.052C44.7845 24.711 46.4497 24.711 48.0272 24.3617C49.6047 24.0125 49.1665 20.1705 47.8519 19.9958C46.8879 19.8212 45.135 19.7339 44.6968 21.8295L42.944 21.9168C43.0317 20.5198 43.0317 19.9958 43.0317 18.7734L44.5216 18.3368C44.9305 18.8169 45.484 19.1526 46.0998 19.2942C46.7156 19.4358 47.3608 19.3756 47.9395 19.1227C49.5171 18.5114 48.816 14.1455 46.7126 14.4948C44.7845 14.7568 44.0833 15.8046 44.171 17.1143L42.6811 17.6383C42.6151 16.6069 42.3472 15.5983 41.8923 14.6694L43.2069 13.7963C44.7845 15.2807 48.9036 13.5343 46.8879 10.4782C45.3103 8.12058 41.6294 10.9148 42.5058 12.8358L41.3665 13.6216C40.9283 13.2724 40.4024 12.3119 39.7013 11.6133L40.5777 10.3909C42.3305 11.1767 44.8721 8.81913 44.0833 6.98545C43.9373 6.67777 43.7299 6.40296 43.4737 6.17777C43.2176 5.95259 42.9181 5.78175 42.5935 5.67568C39.9642 4.71518 38.562 8.90645 39.526 9.69231L38.562 11.0021C37.7482 10.2417 36.8342 9.59537 35.8451 9.08108V9.08108L36.6339 7.50936C38.7373 8.55717 41.3665 4.62786 39.0002 2.96882C35.9327 1.30977 33.917 5.93763 35.5822 7.07277L34.6181 8.64449C33.7917 8.22122 32.905 7.92674 31.9889 7.77131L32.2518 6.19958C34.2676 6.2869 34.7934 3.66736 34.5305 2.53222C34.4156 1.9643 34.0903 1.4603 33.6194 1.12051C33.1484 0.780722 32.5663 0.630073 31.9889 0.698545C29.6226 0.785863 28.9215 5.50104 30.9372 5.93763L30.6743 7.50936C29.5814 7.25426 28.4658 7.10801 27.3439 7.07277V5.23909C29.272 5.23909 30.3237 0 27.081 0C24.1012 0 23.7507 5.23909 26.0293 5.3264L26.117 7.16008C25.7664 7.16008 24.3642 7.16008 22.7866 7.2474L22.5237 5.41372C24.3642 5.15177 24.5394 0.960499 22.9619 0.261954C22.5244 0.0946635 22.0499 0.0469276 21.5876 0.123688C21.1254 0.200449 20.6921 0.398917 20.3327 0.698545C19.281 1.74636 19.4563 5.58836 21.3844 5.50104L21.5596 7.2474C20.5525 7.27432 19.5522 7.42089 18.5799 7.68399L18.054 5.85031C19.7192 5.41372 19.8068 0.349272 16.7394 0.873181C13.4967 1.39709 14.9866 6.72349 17.0023 6.11227L17.4405 7.94595C16.4131 8.14921 15.413 8.47156 14.4607 8.90645L13.7596 7.07277C15.0742 6.37422 14.5484 2.79418 12.9708 2.35759C12.3214 2.21138 11.6407 2.30863 11.0587 2.63077C10.4767 2.9529 10.0343 3.47736 9.81578 4.10395C9.64049 4.97713 10.5169 8.12058 12.5326 7.77131L13.1461 9.43035C12.1722 9.89957 11.2598 10.4861 10.4293 11.1767L9.37757 9.60499C9.84177 9.00942 10.0611 8.26018 9.99106 7.50936C9.93496 7.12078 9.79655 6.74854 9.58501 6.41734C9.37347 6.08614 9.09363 5.80356 8.76409 5.58836C8.32263 5.35007 7.8197 5.24887 7.32002 5.29777C6.82035 5.34667 6.3468 5.54345 5.96032 5.86276C5.57384 6.18208 5.29212 6.60932 5.15142 7.08951C5.01071 7.56969 5.01747 8.08084 5.17081 8.55717C5.43373 9.60499 7.01127 11.0894 8.32588 10.3035L9.55285 11.8753C9.01778 12.3928 8.51992 12.9472 8.06296 13.5343L6.13486 12.4865C6.12627 11.6781 5.88274 10.8896 5.43373 10.2162C4.55732 9.25572 2.45394 8.46985 1.57754 10.8274C0.876408 12.8358 1.40225 14.0582 3.15507 14.3202C3.56327 14.3952 3.98363 14.3709 4.38037 14.2493C4.77711 14.1276 5.13848 13.9123 5.43373 13.6216L7.53711 14.6694C7.19723 15.4878 6.93321 16.3354 6.74835 17.2017L4.73261 16.9397C4.7457 16.6684 4.70319 16.3973 4.60766 16.1429C4.51213 15.8885 4.36558 15.6562 4.17696 15.4601C3.98834 15.264 3.7616 15.1083 3.51056 15.0023C3.25953 14.8964 2.98948 14.8426 2.71687 14.8441C2.38998 14.7894 2.05478 14.8119 1.73818 14.9096C1.42158 15.0074 1.13238 15.1777 0.893778 15.407C0.655181 15.6362 0.473829 15.9179 0.364273 16.2296C0.254716 16.5413 0.220004 16.8742 0.262923 17.2017C0.262923 19.21 1.31461 19.4719 2.27866 19.6466C2.51463 19.7162 2.76234 19.7372 3.00672 19.7084C3.2511 19.6796 3.48705 19.6016 3.70021 19.4791C3.91336 19.3565 4.09927 19.1921 4.24662 18.9957C4.39397 18.7993 4.49968 18.5752 4.55732 18.3368L6.39778 18.6861C6.28504 19.6717 6.22653 20.6628 6.2225 21.6549L4.38204 21.8295C4.28575 21.2986 3.98344 20.8268 3.54056 20.5163C3.09768 20.2057 2.54987 20.0815 2.01574 20.1705C1.05169 20.2578 0 20.6944 0 22.5281C0 25.5842 3.94384 25.1476 4.38204 23.052L6.2225 22.79C6.31014 24.0125 6.31014 24.5364 6.39778 25.9335L4.73261 26.3701C4.20676 25.3222 3.41799 25.0603 2.10338 25.3222C0.964049 25.5842 0.175282 26.3701 0.701127 28.553C1.31461 30.9979 5.25845 29.5135 4.90789 27.5052L6.57306 27.0686C6.78015 28.0528 7.07341 29.017 7.44947 29.9501L5.95958 30.6486C5.25845 29.7755 4.03148 29.7755 2.71687 30.3867C1.40225 30.9979 2.01574 34.4033 3.94384 34.4033C5.43373 34.4033 6.48542 33.7921 6.13486 31.6965L7.88768 30.9979C8.33179 31.9705 8.99963 32.8252 9.83709 33.4927C10.6745 34.1602 11.6581 34.6217 12.7079 34.8399L12.445 36.1497C11.8299 36.1694 11.2426 36.4101 10.7916 36.8273C10.3406 37.2446 10.0563 37.8102 9.99106 38.42C9.92574 38.6852 9.91822 38.9614 9.969 39.2298C10.0198 39.4982 10.1277 39.7527 10.2855 39.9761C10.4432 40.1995 10.6472 40.3866 10.8837 40.5248C11.1201 40.6631 11.3836 40.7492 11.6562 40.7775C13.0585 41.1268 14.3731 41.1268 14.8113 39.2058C14.9154 38.7054 14.8619 38.1852 14.6579 37.7163C14.454 37.2474 14.1096 36.8527 13.672 36.5863C13.8216 36.1293 13.9387 35.6625 14.0225 35.1892C15.1406 35.4686 16.2879 35.6152 17.4405 35.6258L17.3529 37.2848C15.3372 37.3721 15.2495 39.7297 15.6877 40.7775C16.2136 42.0873 19.281 42.262 19.8945 41.1268C20.508 39.9917 20.5956 37.8087 18.7551 37.4595L18.8428 35.7131C20.245 35.8004 21.2967 35.8004 22.8743 35.8004V37.5468C22.6038 37.5525 22.3371 37.6112 22.0894 37.7196C21.8417 37.828 21.6178 37.9839 21.4306 38.1785C21.2434 38.3731 21.0966 38.6026 20.9984 38.8538C20.9002 39.1049 20.8527 39.3729 20.8585 39.6424C20.7709 41.5634 21.9102 42 23.5754 42C24.7147 42 26.117 41.738 26.117 39.7297C26.1482 39.1632 25.9542 38.6073 25.5769 38.1823C25.1996 37.7574 24.6694 37.4977 24.1012 37.4595V35.6258C25.4183 35.6548 26.7358 35.5964 28.0451 35.4511L28.2204 37.1975C25.7664 37.4595 25.8541 41.8254 29.1844 41.4761C32.7777 41.1268 32.2518 36.9356 29.4473 37.0229L29.272 35.2765C29.6226 35.2765 32.2518 35.1019 33.3035 34.9272L33.6541 36.4116C33.22 36.6476 32.8644 37.0046 32.6309 37.4388C32.3974 37.8731 32.2961 38.3658 32.3395 38.8566C32.5148 40.1663 33.3035 41.1268 35.4945 40.6029C38.2991 39.9044 37.6856 35.8004 34.7934 36.1497L34.3552 34.6653C35.3919 34.4263 36.4157 34.1349 37.4226 33.7921L38.3867 35.2765C37.1597 36.3243 37.6856 39.5551 40.1395 39.3805C40.6556 39.3729 41.1574 39.2106 41.5795 38.9146C42.0016 38.6187 42.3244 38.2029 42.5058 37.7214C42.6707 37.2994 42.712 36.8395 42.625 36.395C42.5379 35.9506 42.326 35.5399 42.0139 35.2106C41.7018 34.8814 41.3024 34.6472 40.862 34.5352C40.4216 34.4232 39.9583 34.438 39.526 34.578L38.6496 33.0062C39.0878 32.657 39.9642 31.9584 40.3148 31.6092L41.98 32.5696C41.1912 35.4511 45.2227 36.9356 46.362 33.7048C47.4137 30.736 43.9957 29.5135 42.5935 31.3472L40.9283 30.474C41.2788 29.6882 41.8047 28.9023 42.1553 27.9418L44.0833 28.1164C44.0833 30.2121 47.1508 30.474 47.8519 29.6882C48.7283 28.6403 49.2542 25.8462 46.8879 25.4096" fill="#1D1D1B"/>
</g>
<defs>
<clipPath id="clip0_14_174">
<rect width="49" height="42" fill="white"/>
</clipPath>
</defs>
</svg>
