<svg id="Layer_1"  xmlns="http://www.w3.org/2000/svg" viewBox="0 0 66.44 41.16"><polygon points="4.93 36.99 4.93 8 0 8 0 41.16 18.24 41.16 18.24 36.99 4.93 36.99"/><path d="M39.74,34.39h-7.58v-7.2h7.58c2.37,0,4.17,1.42,4.17,3.6s-1.8,3.6-4.17,3.6ZM32.16,14.78h7.01c1.8,0,3.03,1.18,3.03,3.03s-1.23,2.98-3.03,2.98h-7.01v-6.02h0ZM46.13,23.16c3.27-1.42,4.78-4.07,4.78-6.82,0-4.55-4.26-8.34-11.6-8.34h-16.06v33.15h16.91c7.72,0,12.65-4.45,12.65-9.95,0-3.69-2.13-6.58-6.68-8.05h0Z"/><path d="M59.71,10.37c-2.08,0-3.65-1.56-3.65-3.65,0-1.89,1.56-3.55,3.65-3.55s3.55,1.66,3.55,3.55c0,2.08-1.52,3.69-3.55,3.65ZM59.71,13.55c3.79,0,6.73-3.03,6.73-6.82S63.41,0,59.71,0s-6.82,3.03-6.82,6.73,3.03,6.82,6.82,6.82Z"/><rect x="0" width="66.42" height="41.15" style="fill:none;"/></svg>