<svg id="Layer_1"  width="377" height="43" xmlns="http://www.w3.org/2000/svg" viewBox="0 0 376.84 42.87"><polygon points="4.26 13.69 0 13.69 0 42.38 15.78 42.38 15.78 38.77 4.26 38.77 4.26 13.69" style="fill:#fff;"/><path d="M39.47,31.31c0,4.88-2.75,7.95-7.21,7.95s-7.21-3.07-7.21-7.95V13.69h-4.3v17.25c0,7.7,4.67,11.93,11.52,11.93s11.48-4.22,11.48-11.93V13.69h-4.26v17.62Z" style="fill:#fff;"/><polygon points="55.53 13.69 51.27 13.69 51.27 42.38 67.05 42.38 67.05 38.77 55.53 38.77 55.53 13.69" style="fill:#fff;"/><polygon points="71.72 42.38 91.23 42.38 91.23 38.77 75.98 38.77 75.98 28.85 90.41 28.85 90.41 25.25 75.98 25.25 75.98 17.29 91.23 17.29 91.23 13.69 71.72 13.69 71.72 42.38" style="fill:#fff;"/><path d="M108.19,11.72c3.28,0,5.82-2.62,5.82-5.9s-2.62-5.82-5.82-5.82-5.9,2.62-5.9,5.82,2.62,5.9,5.9,5.9ZM108.19,2.75c1.72,0,3.07,1.43,3.07,3.07,0,1.8-1.31,3.2-3.07,3.16-1.8,0-3.16-1.35-3.16-3.16,0-1.64,1.35-3.07,3.16-3.07Z" style="fill:#fff;"/><path d="M106.1,13.69l-11.43,28.69h4.39l3.54-9.14h11.19l3.54,9.14h4.39l-11.43-28.69h-4.18ZM104,29.63l4.2-10.82,4.2,10.82h-8.39Z" style="fill:#fff;"/><path d="M144.71,26.8c2.83-1.23,4.14-3.52,4.14-5.9,0-3.93-3.69-7.21-10.04-7.21h-13.89v28.69h14.63c6.68,0,10.94-3.85,10.94-8.61,0-3.2-1.84-5.7-5.78-6.97ZM132.62,19.55h6.07c1.56,0,2.62,1.02,2.62,2.62s-1.07,2.58-2.62,2.58h-6.07v-5.2ZM139.18,36.52h-6.56v-6.23h6.56c2.05,0,3.61,1.23,3.61,3.11s-1.56,3.11-3.61,3.11Z" style="fill:#fff;"/><rect x="154.71" y="13.69" width="7.87" height="28.69" style="fill:#fff;"/><polygon points="168.32 42.38 190.61 42.38 190.61 36.52 176.19 36.52 176.19 30.37 189.75 30.37 189.75 24.55 176.19 24.55 176.19 19.55 190.61 19.55 190.61 13.69 168.32 13.69 168.32 42.38" style="fill:#fff;"/><polygon points="217.09 31.15 204.75 13.69 195.57 13.69 195.57 42.38 203.07 42.38 203.07 23.44 216.55 42.38 224.59 42.38 224.59 13.69 217.09 13.69 217.09 31.15" style="fill:#fff;"/><polygon points="251.84 31.15 239.5 13.69 230.32 13.69 230.32 42.38 237.82 42.38 237.82 23.44 251.31 42.38 259.34 42.38 259.34 13.69 251.84 13.69 251.84 31.15" style="fill:#fff;"/><path d="M274.18,13.69l-11.97,28.69h8.11l2.68-7.29h10.46l2.77,7.29h8.24l-11.97-28.69h-8.32ZM281.39,29.71h-6.4l3.17-8.6,3.23,8.6Z" style="fill:#fff;"/><polygon points="305.2 13.69 297.33 13.69 297.33 42.38 316.8 42.38 316.8 36.52 305.2 36.52 305.2 13.69" style="fill:#fff;"/><polygon points="320.57 42.38 342.86 42.38 342.86 36.52 328.44 36.52 328.44 30.37 342 30.37 342 24.55 328.44 24.55 328.44 19.55 342.86 19.55 342.86 13.69 320.57 13.69 320.57 42.38" style="fill:#fff;"/><polygon points="369.34 13.69 369.34 31.15 357 13.69 347.82 13.69 347.82 42.38 355.32 42.38 355.32 23.44 368.81 42.38 376.84 42.38 376.84 13.69 369.34 13.69" style="fill:#fff;"/></svg>